<?xml version="1.0" encoding="UTF-8" standalone="no"?>
<!-- Created with Inkscape (http://www.inkscape.org/) -->

<svg
   width="393.13699pt"
   height="393.13699pt"
   viewBox="0 0 138.68999 138.69"
   version="1.1"
   id="svg274788"
   sodipodi:docname="countourdesign-shuttle.svg"
   inkscape:version="1.2.2 (b0a84865, 2022-12-01)"
   xmlns:inkscape="http://www.inkscape.org/namespaces/inkscape"
   xmlns:sodipodi="http://sodipodi.sourceforge.net/DTD/sodipodi-0.dtd"
   xmlns="http://www.w3.org/2000/svg"
   xmlns:svg="http://www.w3.org/2000/svg">
  <sodipodi:namedview
     id="namedview274790"
     pagecolor="#ffffff"
     bordercolor="#111111"
     borderopacity="1"
     inkscape:pageshadow="0"
     inkscape:pageopacity="0"
     inkscape:pagecheckerboard="false"
     inkscape:document-units="mm"
     showgrid="false"
     showguides="false"
     inkscape:guide-bbox="true"
     inkscape:snap-bbox="true"
     inkscape:bbox-paths="true"
     inkscape:bbox-nodes="true"
     inkscape:snap-bbox-edge-midpoints="true"
     inkscape:snap-bbox-midpoints="true"
     inkscape:object-paths="true"
     inkscape:snap-intersection-paths="true"
     inkscape:snap-smooth-nodes="true"
     inkscape:snap-midpoints="true"
     inkscape:snap-global="true"
     inkscape:zoom="1.03"
     inkscape:cx="491.26214"
     inkscape:cy="304.36893"
     inkscape:window-width="1470"
     inkscape:window-height="891"
     inkscape:window-x="0"
     inkscape:window-y="37"
     inkscape:window-maximized="1"
     inkscape:current-layer="svg274788"
     showborder="false"
     inkscape:showpageshadow="2"
     inkscape:deskcolor="#d1d1d1">
    <sodipodi:guide
       position="182.90817,141.64926"
       orientation="1,0"
       id="guide274848"
       inkscape:locked="false" />
    <sodipodi:guide
       position="315.43663,76.041082"
       orientation="0,-1"
       id="guide275428"
       inkscape:locked="false" />
    <sodipodi:guide
       position="223.86362,114.56289"
       orientation="0,-1"
       id="guide275430"
       inkscape:locked="false" />
    <sodipodi:guide
       position="182.90815,118.00199"
       orientation="0,-1"
       id="guide293635"
       inkscape:locked="false" />
    <sodipodi:guide
       position="315.43663,185.04298"
       orientation="1,0"
       id="guide293900"
       inkscape:locked="false" />
    <sodipodi:guide
       position="285.2632,126.02023"
       orientation="0,-1"
       id="guide1255"
       inkscape:locked="false" />
    <sodipodi:guide
       position="328.42493,113.28422"
       orientation="0.93252063,-0.36111671"
       id="guide3084"
       inkscape:locked="false" />
    <sodipodi:guide
       position="302.18315,114.56289"
       orientation="0.93252016,0.36111791"
       id="guide3509"
       inkscape:locked="false" />
    <sodipodi:guide
       position="284.85397,91.304431"
       orientation="-0.45479366,-0.89059684"
       id="guide4078"
       inkscape:locked="false" />
    <sodipodi:guide
       position="350.96801,93.710351"
       orientation="-0.44758118,0.8942433"
       id="guide5020"
       inkscape:locked="false" />
    <sodipodi:guide
       position="278.509,62.826184"
       orientation="-0.34133462,0.93994185"
       id="guide15971"
       inkscape:locked="false" />
    <sodipodi:guide
       position="352.45167,62.429308"
       orientation="-0.34133444,-0.93994191"
       id="guide16089"
       inkscape:locked="false" />
  </sodipodi:namedview>
  <defs
     id="defs274785">
    <inkscape:path-effect
       effect="fillet_chamfer"
       id="path-effect9026"
       is_visible="true"
       lpeversion="1"
       satellites_param="F,0,0,1,0,2.4346522,0,1 @ F,0,0,1,0,1.801215,0,1 @ F,0,0,1,0,0,0,1 @ F,0,0,1,0,0,0,1"
       unit="px"
       method="auto"
       mode="F"
       radius="0"
       chamfer_steps="1"
       flexible="false"
       use_knot_distance="true"
       apply_no_radius="true"
       apply_with_radius="true"
       only_selected="false"
       hide_knots="false"
       nodesatellites_param="F,0,0,1,0,2.4346522,0,1 @ F,0,0,1,0,1.801215,0,1 @ F,0,0,1,0,0,0,1 @ F,0,0,1,0,0,0,1" />
    <inkscape:path-effect
       effect="fillet_chamfer"
       id="path-effect8263"
       is_visible="true"
       lpeversion="1"
       satellites_param="F,0,0,1,0,2.5343014,0,1 @ F,0,0,1,0,2.5658136,0,1 @ F,0,0,1,0,2.4572292,0,1 @ F,0,0,1,0,2.3785397,0,1"
       unit="px"
       method="auto"
       mode="F"
       radius="0"
       chamfer_steps="1"
       flexible="false"
       use_knot_distance="true"
       apply_no_radius="true"
       apply_with_radius="true"
       only_selected="false"
       hide_knots="false"
       nodesatellites_param="F,0,0,1,0,2.5343014,0,1 @ F,0,0,1,0,2.5658136,0,1 @ F,0,0,1,0,2.4572292,0,1 @ F,0,0,1,0,2.3785397,0,1" />
    <inkscape:path-effect
       effect="envelope"
       id="path-effect1705"
       is_visible="true"
       lpeversion="1"
       yy="true"
       xx="true"
       bendpath1="m 75.892807,-137.28752 c 8.607975,1.3504 17.037606,2.18804 25.622483,0"
       bendpath2="m 101.51529,-137.28752 v 10.47667"
       bendpath3="m 75.892807,-126.81085 c 8.969501,1.51199 17.411428,1.16315 25.622483,0"
       bendpath4="m 75.892807,-137.28752 v 10.47667"
       bendpath1-nodetypes="cc"
       bendpath3-nodetypes="cc" />
    <inkscape:path-effect
       effect="perspective-envelope"
       up_left_point="77.946501,-137.2028"
       up_right_point="98.924119,-137.95493"
       down_left_point="74.542214,-128.2287"
       down_right_point="102.56394,-128.55554"
       id="path-effect1703"
       is_visible="true"
       lpeversion="1"
       deform_type="perspective"
       horizontal_mirror="false"
       vertical_mirror="false"
       overflow_perspective="false" />
    <inkscape:path-effect
       effect="perspective-envelope"
       up_left_point="78.996676,-134.48096"
       up_right_point="104.61804,-134.24148"
       down_left_point="78.898757,-124.00475"
       down_right_point="104.52012,-123.76527"
       id="path-effect1602"
       is_visible="true"
       lpeversion="1"
       deform_type="perspective"
       horizontal_mirror="false"
       vertical_mirror="false"
       overflow_perspective="false" />
    <inkscape:path-effect
       effect="envelope"
       id="path-effect1600"
       is_visible="true"
       lpeversion="1"
       yy="true"
       xx="true"
       bendpath1="m 79.077979,-134.61396 25.621361,0.23947"
       bendpath2="m 104.69934,-134.37449 -0.0979,10.47621"
       bendpath3="m 78.980061,-124.13775 25.621359,0.23947"
       bendpath4="m 79.077979,-134.61396 -0.09792,10.47621" />
    <inkscape:path-effect
       effect="envelope"
       id="path-effect1265"
       is_visible="true"
       lpeversion="1"
       yy="true"
       xx="true"
       bendpath1="m -76.929504,137.92606 h 29.307479"
       bendpath2="m -47.622025,137.92606 v 10.47667"
       bendpath3="m -76.929504,148.40273 h 29.307479"
       bendpath4="m -76.929504,137.92606 v 10.47667" />
    <inkscape:path-effect
       effect="perspective-envelope"
       up_left_point="-76.929504,137.92606"
       up_right_point="-47.622025,137.92606"
       down_left_point="-76.929504,148.40273"
       down_right_point="-47.622025,148.40273"
       id="path-effect1261"
       is_visible="true"
       lpeversion="1"
       deform_type="perspective"
       horizontal_mirror="false"
       vertical_mirror="false"
       overflow_perspective="false" />
    <inkscape:path-effect
       effect="envelope"
       id="path-effect1173"
       is_visible="true"
       lpeversion="1"
       yy="true"
       xx="true"
       bendpath1="M 77.458671,-192.13273 H 48.151192"
       bendpath2="M 48.151192,-192.13273 V -202.6094"
       bendpath3="M 77.458671,-202.6094 H 48.151192"
       bendpath4="M 77.458671,-192.13273 V -202.6094" />
    <inkscape:path-effect
       effect="perspective-envelope"
       up_left_point="77.458671,-192.13273"
       up_right_point="48.151192,-192.13273"
       down_left_point="77.458671,-202.6094"
       down_right_point="48.151192,-202.6094"
       id="path-effect1169"
       is_visible="true"
       lpeversion="1"
       deform_type="perspective"
       horizontal_mirror="false"
       vertical_mirror="false"
       overflow_perspective="false" />
    <inkscape:path-effect
       effect="envelope"
       id="path-effect1081"
       is_visible="true"
       lpeversion="1"
       yy="true"
       xx="true"
       bendpath1="M 71.637837,-143.21773 H 42.330358"
       bendpath2="M 42.330358,-143.21773 V -153.6944"
       bendpath3="M 71.637837,-153.6944 H 42.330358"
       bendpath4="M 71.637837,-143.21773 V -153.6944" />
    <inkscape:path-effect
       effect="perspective-envelope"
       up_left_point="71.637837,-143.21773"
       up_right_point="42.330358,-143.21773"
       down_left_point="71.637837,-153.6944"
       down_right_point="42.330358,-153.6944"
       id="path-effect1077"
       is_visible="true"
       lpeversion="1"
       deform_type="perspective"
       horizontal_mirror="false"
       vertical_mirror="false"
       overflow_perspective="false" />
    <inkscape:path-effect
       effect="envelope"
       id="path-effect991"
       is_visible="true"
       lpeversion="1"
       yy="true"
       xx="true"
       bendpath1="m -87.512838,148.5094 h 29.307479"
       bendpath2="m -58.205359,148.5094 v 10.47667"
       bendpath3="m -87.512838,158.98607 h 29.307479"
       bendpath4="m -87.512838,148.5094 v 10.47667" />
    <inkscape:path-effect
       effect="perspective-envelope"
       up_left_point="-87.512838,148.5094"
       up_right_point="-58.205359,148.5094"
       down_left_point="-87.512838,158.98607"
       down_right_point="-58.205359,158.98607"
       id="path-effect987"
       is_visible="true"
       lpeversion="1"
       deform_type="perspective"
       horizontal_mirror="false"
       vertical_mirror="false"
       overflow_perspective="false" />
    <inkscape:path-effect
       effect="envelope"
       id="path-effect298203"
       is_visible="true"
       lpeversion="1"
       yy="true"
       xx="true"
       bendpath1="m -77.194088,137.66148 c 10.746294,-2.63 20.770831,-3.31736 29.307479,0"
       bendpath2="m -47.886609,137.66148 v 10.47667"
       bendpath3="m -77.194088,148.13815 h 29.307479"
       bendpath4="m -77.194088,137.66148 v 10.47667"
       bendpath1-nodetypes="cc" />
    <inkscape:path-effect
       effect="perspective-envelope"
       up_left_point="-77.194088,137.66148"
       up_right_point="-47.886609,137.66148"
       down_left_point="-77.194088,148.13815"
       down_right_point="-47.886609,148.13815"
       id="path-effect298201"
       is_visible="true"
       lpeversion="1"
       deform_type="perspective"
       horizontal_mirror="false"
       vertical_mirror="false"
       overflow_perspective="false" />
    <inkscape:path-effect
       effect="envelope"
       id="path-effect298097"
       is_visible="true"
       lpeversion="1"
       yy="true"
       xx="true"
       bendpath1="m 145.17736,38.706757 c 8.67513,-3.309832 16.78316,-3.205789 24.5268,0"
       bendpath2="M 169.70416,38.706757 V 48.884746"
       bendpath3="m 145.17736,48.884746 c 8.14063,-2.398289 16.32894,-2.645887 24.5268,0"
       bendpath4="M 145.17736,38.706757 V 48.884746"
       bendpath1-nodetypes="cc"
       bendpath3-nodetypes="cc" />
    <inkscape:path-effect
       effect="perspective-envelope"
       up_left_point="144.3982,38.706757"
       up_right_point="170.39872,38.706757"
       down_left_point="148.04477,48.894761"
       down_right_point="167.27804,48.824968"
       id="path-effect298093"
       is_visible="true"
       lpeversion="1"
       deform_type="perspective"
       horizontal_mirror="false"
       vertical_mirror="false"
       overflow_perspective="false" />
    <inkscape:path-effect
       effect="envelope"
       id="path-effect298087"
       is_visible="true"
       lpeversion="1"
       yy="true"
       xx="true"
       bendpath1="m 174.69132,38.668292 c -3.30983,-8.67513 -3.20579,-16.78316 0,-24.5268"
       bendpath2="m 174.69132,14.141492 h 10.17799"
       bendpath3="m 184.86931,38.668292 c -2.39829,-8.14063 -2.64589,-16.32894 0,-24.5268"
       bendpath4="m 174.69132,38.668292 h 10.17799"
       bendpath1-nodetypes="cc"
       bendpath3-nodetypes="cc" />
    <inkscape:path-effect
       effect="perspective-envelope"
       up_left_point="174.69132,39.447452"
       up_right_point="174.69132,13.446932"
       down_left_point="184.87932,35.800882"
       down_right_point="184.80953,16.567612"
       id="path-effect298083"
       is_visible="true"
       lpeversion="1"
       deform_type="perspective"
       horizontal_mirror="false"
       vertical_mirror="false"
       overflow_perspective="false" />
    <inkscape:path-effect
       effect="envelope"
       id="path-effect296787"
       is_visible="true"
       lpeversion="1"
       yy="true"
       xx="true"
       bendpath1="m 166.34404,22.831756 c 8.67513,-3.309832 16.78316,-3.205789 24.5268,0"
       bendpath2="M 190.87084,22.831756 V 33.009745"
       bendpath3="m 166.34404,33.009745 c 8.14063,-2.398289 16.32894,-2.645887 24.5268,0"
       bendpath4="M 166.34404,22.831756 V 33.009745"
       bendpath1-nodetypes="cc"
       bendpath3-nodetypes="cc" />
    <inkscape:path-effect
       effect="perspective-envelope"
       up_left_point="165.56488,22.831756"
       up_right_point="191.5654,22.831756"
       down_left_point="169.21145,33.01976"
       down_right_point="188.44472,32.949967"
       id="path-effect296744"
       is_visible="true"
       lpeversion="1"
       deform_type="perspective"
       horizontal_mirror="false"
       vertical_mirror="false"
       overflow_perspective="false" />
    <inkscape:path-effect
       effect="envelope"
       id="path-effect276741"
       is_visible="true"
       lpeversion="1"
       yy="true"
       xx="true"
       bendpath1="m -21.216429,103.97987 c 9.286714,2.40724 16.6324025,1.7586 23.2730792,0"
       bendpath2="m 2.0566502,103.97987 v 5.98096"
       bendpath3="m -21.216429,109.96083 c 8.078715,1.78703 15.8785008,2.02135 23.2730792,0"
       bendpath4="m -21.216429,103.97987 v 5.98096"
       bendpath1-nodetypes="cc"
       bendpath3-nodetypes="cc" />
    <inkscape:path-effect
       effect="fillet_chamfer"
       id="path-effect9026-3"
       is_visible="true"
       lpeversion="1"
       satellites_param="F,0,0,1,0,2.4346522,0,1 @ F,0,0,1,0,1.801215,0,1 @ F,0,1,1,0,2.3861032,0,1 @ F,0,0,1,0,2.3861032,0,1"
       unit="px"
       method="auto"
       mode="F"
       radius="0"
       chamfer_steps="1"
       flexible="false"
       use_knot_distance="true"
       apply_no_radius="true"
       apply_with_radius="true"
       only_selected="false"
       hide_knots="false"
       nodesatellites_param="F,0,0,1,0,2.4346522,0,1 @ F,0,0,1,0,1.801215,0,1 @ F,0,1,1,0,2.3861032,0,1 @ F,0,0,1,0,2.3861032,0,1" />
    <inkscape:path-effect
       effect="fillet_chamfer"
       id="path-effect9867"
       is_visible="true"
       lpeversion="1"
       satellites_param="F,0,0,1,0,2.2334325,0,1 @ F,0,0,1,0,2.1511347,0,1 @ F,0,0,1,0,2.2098606,0,1 @ F,0,0,1,0,2.2611486,0,1"
       unit="px"
       method="auto"
       mode="F"
       radius="0"
       chamfer_steps="1"
       flexible="false"
       use_knot_distance="true"
       apply_no_radius="true"
       apply_with_radius="true"
       only_selected="false"
       hide_knots="false"
       nodesatellites_param="F,0,0,1,0,2.2334325,0,1 @ F,0,0,1,0,2.1511347,0,1 @ F,0,0,1,0,2.2098606,0,1 @ F,0,0,1,0,2.2611486,0,1" />
    <inkscape:path-effect
       effect="fillet_chamfer"
       id="path-effect10105"
       is_visible="true"
       lpeversion="1"
       satellites_param="F,0,0,1,0,2.5616999,0,1 @ F,0,0,1,0,2.7087561,0,1 @ F,0,0,1,0,2.3861539,0,1 @ F,0,0,1,0,2.5086521,0,1"
       unit="px"
       method="auto"
       mode="F"
       radius="0"
       chamfer_steps="1"
       flexible="false"
       use_knot_distance="true"
       apply_no_radius="true"
       apply_with_radius="true"
       only_selected="false"
       hide_knots="false"
       nodesatellites_param="F,0,0,1,0,2.5616999,0,1 @ F,0,0,1,0,2.7087561,0,1 @ F,0,0,1,0,2.3861539,0,1 @ F,0,0,1,0,2.5086521,0,1" />
    <inkscape:path-effect
       effect="fillet_chamfer"
       id="path-effect10402"
       is_visible="true"
       lpeversion="1"
       satellites_param="F,0,0,1,0,2.5616999,0,1 @ F,0,0,1,0,2.7087561,0,1 @ F,0,0,1,0,2.3861539,0,1 @ F,0,0,1,0,2.5086521,0,1"
       unit="px"
       method="auto"
       mode="F"
       radius="0"
       chamfer_steps="1"
       flexible="false"
       use_knot_distance="true"
       apply_no_radius="true"
       apply_with_radius="true"
       only_selected="false"
       hide_knots="false"
       nodesatellites_param="F,0,0,1,0,2.5616999,0,1 @ F,0,0,1,0,2.7087561,0,1 @ F,0,0,1,0,2.3861539,0,1 @ F,0,0,1,0,2.5086521,0,1" />
    <inkscape:path-effect
       effect="fillet_chamfer"
       id="path-effect8263-6"
       is_visible="true"
       lpeversion="1"
       satellites_param="F,0,0,1,0,2.5343014,0,1 @ F,0,0,1,0,2.5658136,0,1 @ F,0,0,1,0,2.4572292,0,1 @ F,0,0,1,0,2.3785397,0,1"
       unit="px"
       method="auto"
       mode="F"
       radius="0"
       chamfer_steps="1"
       flexible="false"
       use_knot_distance="true"
       apply_no_radius="true"
       apply_with_radius="true"
       only_selected="false"
       hide_knots="false"
       nodesatellites_param="F,0,0,1,0,2.5343014,0,1 @ F,0,0,1,0,2.5658136,0,1 @ F,0,0,1,0,2.4572292,0,1 @ F,0,0,1,0,2.3785397,0,1" />
  </defs>
  <g
     inkscape:groupmode="layer"
     id="layer12"
     inkscape:label="Base"
     style="display:inline;opacity:1"
     transform="translate(136.75851,-0.01731117)" />
  <g
     inkscape:groupmode="layer"
     id="layer13"
     inkscape:label="Controls"
     transform="translate(136.75851,-0.01731117)">
    <g
       inkscape:groupmode="layer"
       id="layer14"
       inkscape:label="Buttons"
       style="opacity:1" />
    <g
       inkscape:groupmode="layer"
       id="layer15"
       inkscape:label="Jog dial">
      <g
         id="g520"
         transform="translate(46.237864,-6.9356796)">
        <path
           style="font-variation-settings:normal;display:inline;opacity:1;fill:none;fill-opacity:1;stroke:#454545;stroke-width:0.529167;stroke-linecap:round;stroke-linejoin:miter;stroke-miterlimit:4;stroke-dasharray:none;stroke-dashoffset:0;stroke-opacity:1;stop-color:#000000;stop-opacity:1"
           d="m 22.69799,0.28189467 c 21.000589,0 31.76531,11.20264033 39.464495,24.67119233 10.592878,18.530628 2.161184,60.84997 0.680229,63.721161 -4.030403,8.344891 -7.38552,27.042782 -9.067393,40.908152 -1.702399,14.03459 -11.038165,28.86191 -31.077331,28.86191 -19.1580841,0 -29.2671122,-14.77714 -31.0376813,-28.77327 -1.7506647,-13.83879 -2.9809507,-27.97619 -7.7612727,-41.12122 -0.753977,-1.831601 -9.535579,-42.024278 1.706855,-63.658629 C -7.5522136,11.724996 3.9445176,0.28189467 22.69799,0.28189467 Z"
           id="path275434"
           sodipodi:nodetypes="sscssscss" />
        <path
           id="path277916"
           style="opacity:1;fill:none;stroke:#454545;stroke-width:0.529167;stroke-linecap:round;stroke-miterlimit:4;stroke-dasharray:none;stroke-opacity:1;stop-color:#000000;stop-opacity:1"
           d="m 50.402485,75.855864 0.413466,0.425717 c 1.179523,1.21447 0.892108,2.923494 -0.06308,4.321287 -3.319527,4.857697 -7.33077,8.683136 -11.948027,11.604217 -1.430716,0.905134 -3.141766,1.151389 -4.321289,-0.06308 l -0.413466,-0.425717 c -1.179523,-1.21447 -1.350327,-3.389359 0.06308,-4.321288 4.609116,-3.039013 8.893452,-6.507854 11.948028,-11.604216 0.870356,-1.452133 3.141764,-1.151389 4.321288,0.06308 z"
           sodipodi:nodetypes="sssssssss" />
        <path
           id="rect277678"
           style="opacity:1;fill:none;stroke:#454545;stroke-width:0.529167;stroke-linecap:round;stroke-miterlimit:4;stroke-dasharray:none;stroke-opacity:1;stop-color:#000000;stop-opacity:1"
           d="m 56.710735,51.573286 h 0.593455 c 1.692989,0 2.718716,1.396873 3.055937,3.055937 1.171932,5.765679 1.121446,11.308378 0,16.655726 -0.347494,1.656944 -1.362948,3.055938 -3.055937,3.055938 h -0.593455 c -1.692989,0 -3.372152,-1.392741 -3.055937,-3.055938 1.031175,-5.423673 1.527734,-10.91383 0,-16.655726 -0.435305,-1.636069 1.362948,-3.055937 3.055937,-3.055937 z"
           sodipodi:nodetypes="sssssssss" />
        <path
           id="path278000"
           style="opacity:1;fill:none;stroke:#454545;stroke-width:0.529167;stroke-linecap:round;stroke-miterlimit:4;stroke-dasharray:none;stroke-opacity:1;stop-color:#000000;stop-opacity:1"
           d="m -5.9531165,75.855864 -0.4134661,0.425717 c -1.179522,1.21447 -0.8921073,2.923494 0.06308,4.321287 3.3195253,4.857697 7.3307657,8.683136 11.9480203,11.604217 1.4307151,0.905134 3.1417642,1.151389 4.3212866,-0.06308 L 10.37927,91.718288 C 11.558793,90.503818 11.729597,88.328929 10.31619,87.397 5.7070767,84.357987 1.4227431,80.889146 -1.6318313,75.792784 c -0.8703553,-1.452133 -3.1417622,-1.151389 -4.3212852,0.06308 z"
           sodipodi:nodetypes="sssssssss" />
        <path
           id="path278002"
           style="opacity:1;fill:none;stroke:#454545;stroke-width:0.529167;stroke-linecap:round;stroke-miterlimit:4;stroke-dasharray:none;stroke-opacity:1;stop-color:#000000;stop-opacity:1"
           d="m -9.3036077,86.495222 -0.3657327,0.467365 c -1.0433436,1.333283 -0.5753906,3.001932 0.5233537,4.289942 3.8184215,4.476169 8.21458712,7.852234 13.1169113,10.264521 1.5190481,0.74747 3.2465962,0.8099 4.2899396,-0.5234 L 8.6265949,100.5263 C 9.6699383,99.19301 9.6079323,97.012291 8.1032392,96.236338 3.1964419,93.70597 -1.4332462,90.713589 -5.0136691,85.971867 -6.0338565,84.620785 -8.2602663,85.16194 -9.3036077,86.495222 Z"
           sodipodi:nodetypes="sssssssss" />
        <path
           id="path278004"
           style="opacity:1;fill:none;stroke:#454545;stroke-width:0.529167;stroke-linecap:round;stroke-miterlimit:4;stroke-dasharray:none;stroke-opacity:1;stop-color:#000000;stop-opacity:1"
           d="m 54.264115,86.495222 0.365733,0.467365 c 1.043344,1.333283 0.575391,3.001932 -0.523354,4.289942 -3.818424,4.476169 -8.214592,7.852234 -13.116919,10.264521 -1.519049,0.74747 -3.246598,0.8099 -4.289942,-0.5234 l -0.365731,-0.46735 c -1.043344,-1.33329 -0.981338,-3.514009 0.523356,-4.289962 4.9068,-2.530368 9.536491,-5.522749 13.116916,-10.264471 1.020188,-1.351082 3.246599,-0.809927 4.289941,0.523355 z"
           sodipodi:nodetypes="sssssssss" />
        <path
           id="path278006"
           style="opacity:1;fill:none;stroke:#454545;stroke-width:0.529167;stroke-linecap:round;stroke-miterlimit:4;stroke-dasharray:none;stroke-opacity:1;stop-color:#000000;stop-opacity:1"
           d="m -11.009803,51.573286 h -0.593455 c -1.692989,0 -2.718716,1.396873 -3.055937,3.055937 -1.171933,5.765679 -1.121447,11.308378 0,16.655726 0.347494,1.656944 1.362948,3.055938 3.055937,3.055938 h 0.593455 c 1.6929883,0 3.3721504,-1.392741 3.0559353,-3.055938 -1.0311744,-5.423673 -1.5277331,-10.91383 0,-16.655726 0.4353051,-1.636069 -1.362947,-3.055937 -3.0559353,-3.055937 z"
           sodipodi:nodetypes="sssssssss" />
        <rect
           style="font-variation-settings:normal;opacity:1;fill:none;fill-opacity:1;stroke:#454545;stroke-width:0.529167;stroke-linecap:round;stroke-linejoin:miter;stroke-miterlimit:4;stroke-dasharray:none;stroke-dashoffset:0;stroke-opacity:1;stop-color:#000000;stop-opacity:1"
           id="rect278514"
           width="12.351958"
           height="8.8017864"
           x="16.58165"
           y="25.414209"
           rx="3.0559375"
           ry="3.0559375" />
        <rect
           style="font-variation-settings:normal;opacity:1;fill:none;fill-opacity:1;stroke:#454545;stroke-width:0.529167;stroke-linecap:round;stroke-linejoin:miter;stroke-miterlimit:4;stroke-dasharray:none;stroke-dashoffset:0;stroke-opacity:1;stop-color:#000000;stop-opacity:1"
           id="rect278597"
           width="12.351958"
           height="8.8017864"
           x="40.996796"
           y="12.548829"
           rx="3.0559375"
           ry="3.0559375"
           transform="rotate(21.679714)" />
        <rect
           style="font-variation-settings:normal;opacity:1;fill:none;fill-opacity:1;stroke:#454545;stroke-width:0.529167;stroke-linecap:round;stroke-linejoin:miter;stroke-miterlimit:4;stroke-dasharray:none;stroke-dashoffset:0;stroke-opacity:1;stop-color:#000000;stop-opacity:1"
           id="rect278599"
           width="12.351958"
           height="8.8017864"
           x="-1.4677444"
           y="29.430054"
           rx="3.0559375"
           ry="3.0559375"
           transform="matrix(-0.92926342,0.36941776,0.36941776,0.92926342,6.6666664e-7,0)" />
        <rect
           style="font-variation-settings:normal;opacity:1;fill:none;fill-opacity:1;stroke:#454545;stroke-width:0.529167;stroke-linecap:round;stroke-linejoin:miter;stroke-miterlimit:4;stroke-dasharray:none;stroke-dashoffset:0;stroke-opacity:1;stop-color:#000000;stop-opacity:1"
           id="rect278601"
           width="12.351958"
           height="8.8017864"
           x="25.340471"
           y="22.056507"
           rx="3.0559375"
           ry="3.0559375"
           transform="matrix(-0.73081711,0.68257333,0.68257333,0.73081711,6.6666664e-7,0)" />
        <rect
           style="font-variation-settings:normal;opacity:1;fill:none;fill-opacity:1;stroke:#454545;stroke-width:0.529167;stroke-linecap:round;stroke-linejoin:miter;stroke-miterlimit:4;stroke-dasharray:none;stroke-dashoffset:0;stroke-opacity:1;stop-color:#000000;stop-opacity:1"
           id="rect278603"
           width="12.351958"
           height="8.8017864"
           x="58.657326"
           y="-9.0610914"
           rx="3.0559375"
           ry="3.0559375"
           transform="rotate(43.045061)" />
        <rect
           style="font-variation-settings:normal;opacity:1;fill:none;fill-opacity:1;stroke:#454545;stroke-width:0.529167;stroke-linecap:round;stroke-linejoin:miter;stroke-miterlimit:4;stroke-dasharray:none;stroke-dashoffset:0;stroke-opacity:1;stop-color:#000000;stop-opacity:1"
           id="rect278605"
           width="12.351958"
           height="8.8017864"
           x="27.551088"
           y="7.1348367"
           rx="3.0559375"
           ry="3.0559375"
           transform="rotate(11.810287)" />
        <rect
           style="font-variation-settings:normal;opacity:1;fill:none;fill-opacity:1;stroke:#454545;stroke-width:0.529167;stroke-linecap:round;stroke-linejoin:miter;stroke-miterlimit:4;stroke-dasharray:none;stroke-dashoffset:0;stroke-opacity:1;stop-color:#000000;stop-opacity:1"
           id="rect278607"
           width="12.351958"
           height="8.8017864"
           x="-17.952198"
           y="16.649513"
           rx="3.0559375"
           ry="3.0559375"
           transform="matrix(-0.97883067,0.2046718,0.2046718,0.97883067,6.6666664e-7,0)" />
        <rect
           style="font-variation-settings:normal;opacity:1;fill:none;fill-opacity:1;stroke:#454545;stroke-width:0.529167;stroke-linecap:round;stroke-linejoin:miter;stroke-miterlimit:4;stroke-dasharray:none;stroke-dashoffset:0;stroke-opacity:1;stop-color:#000000;stop-opacity:1"
           id="rect278609"
           width="12.351958"
           height="8.8017864"
           x="3.6287825"
           y="16.19705"
           rx="3.0559375"
           ry="3.0559375"
           transform="matrix(-0.87499838,0.48412585,0.48412585,0.87499838,6.6666664e-7,0)" />
        <rect
           style="font-variation-settings:normal;opacity:1;fill:none;fill-opacity:1;stroke:#454545;stroke-width:0.529167;stroke-linecap:round;stroke-linejoin:miter;stroke-miterlimit:4;stroke-dasharray:none;stroke-dashoffset:0;stroke-opacity:1;stop-color:#000000;stop-opacity:1"
           id="rect278611"
           width="12.351958"
           height="8.8017864"
           x="44.333214"
           y="-6.3241954"
           rx="3.0559375"
           ry="3.0559375"
           transform="rotate(28.955216)" />
        <circle
           style="font-variation-settings:normal;opacity:1;fill:none;fill-opacity:1;stroke:#454545;stroke-width:0.529167;stroke-linecap:round;stroke-linejoin:miter;stroke-miterlimit:4;stroke-dasharray:none;stroke-dashoffset:0;stroke-opacity:1;stop-color:#000000;stop-opacity:1"
           id="path277566"
           cx="22.044754"
           cy="62.666225"
           r="15.777275" />
        <circle
           style="font-variation-settings:normal;opacity:1;fill:none;fill-opacity:1;stroke:#454545;stroke-width:0.529167;stroke-linecap:round;stroke-linejoin:miter;stroke-miterlimit:4;stroke-dasharray:none;stroke-dashoffset:0;stroke-opacity:1;stop-color:#000000;stop-opacity:1"
           id="path277568"
           cx="22.345993"
           cy="54.36124"
           r="4.9935131" />
        <circle
           style="font-variation-settings:normal;opacity:1;fill:none;fill-opacity:1;stroke:#454545;stroke-width:0.529167;stroke-linecap:round;stroke-linejoin:miter;stroke-miterlimit:4;stroke-dasharray:none;stroke-dashoffset:0;stroke-opacity:1;stop-color:#000000;stop-opacity:1"
           id="circle277650"
           cx="29.318409"
           cy="66.682343"
           r="4.9935131" />
        <circle
           style="font-variation-settings:normal;opacity:1;fill:none;fill-opacity:1;stroke:#454545;stroke-width:0.529167;stroke-linecap:round;stroke-linejoin:miter;stroke-miterlimit:4;stroke-dasharray:none;stroke-dashoffset:0;stroke-opacity:1;stop-color:#000000;stop-opacity:1"
           id="circle277652"
           cx="14.613994"
           cy="66.682343"
           r="4.9935131" />
        <circle
           style="font-variation-settings:normal;opacity:1;fill:none;fill-opacity:1;stroke:#454545;stroke-width:0.529167;stroke-linecap:round;stroke-linejoin:miter;stroke-miterlimit:4;stroke-dasharray:none;stroke-dashoffset:0;stroke-opacity:1;stop-color:#000000;stop-opacity:1"
           id="circle277654"
           cx="22.044754"
           cy="62.666225"
           r="22.445749" />
      </g>
    </g>
  </g>
  <path
     style="fill:#000000;stroke-width:0.226999"
     d="M 63.681186,138.37122 C 58.165453,137.3492 52.612949,134.33967 49.14529,130.4926 46.654611,127.7294 44.256623,123.6198 43.078276,120.09516 42.149562,117.31723 41.847341,115.55129 40.185554,103.19288 38.693135,92.094101 37.751449,87.302825 35.735338,80.550388 32.639305,70.181004 31.342456,60.550697 31.336641,47.885815 31.333141,39.778479 31.759557,35.380799 33.054348,30.180193 34.999755,22.366347 38.852473,15.631614 44.72314,9.7825968 49.55032,4.9732124 54.984657,2.0014032 61.524692,0.59452643 63.871179,0.08975648 70.337135,-0.10844269 73.534889,0.22638123 83.65065,1.2855617 92.134018,6.2776036 98.613426,14.983847 c 4.501974,6.049203 6.449744,10.234383 7.721264,16.590702 0.9285,4.641577 1.12098,7.86349 0.9747,16.315736 -0.16398,9.475539 -0.66554,14.642843 -2.2061,22.728182 -0.78306,4.109786 -1.14706,5.429862 -2.59725,9.419192 -2.47791,6.816485 -4.265419,14.930969 -6.250883,28.376221 -1.441227,9.75978 -1.94729,11.73837 -4.093232,16.00346 -3.717691,7.38899 -9.511073,11.90663 -17.624659,13.74362 -2.269314,0.51378 -8.560388,0.63564 -10.85608,0.21026 z M 85.244507,89.141739 c 1.463849,-0.623749 5.747625,-3.578953 7.836958,-5.406399 4.172269,-3.649296 5.29915,-5.813252 4.066147,-7.80828 -0.746099,-1.207222 -1.578914,-1.676601 -2.974764,-1.676601 h -1.218183 l -2.038265,2.06287 c -2.538539,2.569195 -5.11121,4.607059 -7.861216,6.227049 -3.06285,1.804281 -3.370533,2.138206 -3.370533,3.658068 0,1.889833 0.60531,2.827335 2.173594,3.366483 0.90655,0.31166 1.975046,0.178125 3.386262,-0.42319 z m -29.63107,-0.04984 c 0.97334,-0.819 1.371265,-1.684755 1.371265,-2.983374 0,-1.398864 -0.294507,-1.721163 -3.06004,-3.348763 -3.276429,-1.928281 -5.691817,-3.803433 -8.073059,-6.267399 l -2.166621,-2.241887 h -1.277709 c -1.047199,0 -1.405173,0.107258 -1.984272,0.594538 -1.433839,1.206499 -1.74488,2.771495 -0.887454,4.465244 0.654416,1.292707 4.649011,5.168925 7.188637,6.975595 4.618064,3.285244 7.309914,4.134974 8.889253,2.806046 z m 1.626625,-7.904078 c 1.318915,-0.896222 1.985217,-2.995864 1.335794,-4.209321 -0.123664,-0.231067 -1.272849,-1.231262 -2.553748,-2.222656 -3.227251,-2.497848 -5.292071,-4.465308 -7.000473,-6.670405 -2.209816,-2.852273 -2.534783,-3.141944 -3.524772,-3.141944 -1.160699,0 -2.764746,0.81788 -3.288465,1.676735 -0.521765,0.85567 -0.554621,2.131949 -0.08386,3.258593 1.256722,3.00777 8.23717,9.90828 11.568688,11.436228 1.287686,0.590572 2.557556,0.545019 3.546856,-0.12723 z m 25.050413,0.229718 c 1.501998,-0.627573 3.632679,-2.272696 6.307362,-4.869992 3.940053,-3.826051 5.841788,-6.520388 5.841788,-8.276515 0,-0.849091 -0.707667,-2.031884 -1.619811,-2.707376 -0.725765,-0.537458 -2.44805,-0.767323 -3.106982,-0.414673 -0.264161,0.141373 -1.08221,1.046782 -1.817902,2.012022 -1.737757,2.279979 -4.652289,5.182451 -7.075277,7.045995 -3.169864,2.437973 -3.404997,2.704245 -3.404997,3.855941 0,2.739534 2.398475,4.389701 4.875819,3.354598 z m -8.053804,-7.590971 c 3.150167,-1.066527 5.408621,-2.491152 7.964631,-5.02408 4.133333,-4.096004 5.86943,-8.327733 5.87839,-14.328615 0.0071,-4.567061 -1.316803,-8.524145 -4.076238,-12.186186 -2.846028,-3.776968 -7.273728,-6.582567 -11.73567,-7.436281 -2.167823,-0.41477 -6.998414,-0.414018 -8.958313,0.0014 -3.685904,0.781256 -7.251096,2.854912 -10.10202,5.875722 -9.275567,9.828329 -6.458524,25.908331 5.593251,31.926997 3.469515,1.732678 4.99121,2.042307 9.647476,1.963022 3.406464,-0.058 3.765904,-0.107175 5.788493,-0.791943 z M 41.118367,64.310043 c 0.776463,-0.869016 0.800208,-1.256817 0.315053,-5.146425 -0.441402,-3.538896 -0.429641,-6.17822 0.04277,-9.603678 0.440634,-3.194872 0.340777,-3.749571 -0.815292,-4.528645 -0.602676,-0.406143 -1.084092,-0.517773 -2.232951,-0.517773 -1.354015,0 -1.521156,0.05652 -2.213032,0.748398 -1.26524,1.265246 -1.728452,3.83261 -1.728452,9.58008 0,5.783465 0.461798,8.31342 1.753169,9.604787 0.764833,0.764835 0.791556,0.772176 2.497218,0.686046 1.60858,-0.08123 1.768165,-0.136365 2.38149,-0.82279 z m 59.962123,0.106435 c 0.41469,-0.414701 0.87275,-1.155288 1.01791,-1.645745 1.12708,-3.808353 0.93511,-14.088959 -0.30797,-16.492803 -0.69319,-1.34049 -1.37823,-1.764408 -2.85125,-1.764408 -0.734878,0 -1.682167,0.144576 -2.105083,0.321282 -1.1667,0.487482 -1.352734,1.030782 -1.128737,3.296436 0.251498,2.543756 0.253248,9.928837 0.0035,12.965545 -0.224731,2.727895 -0.07715,3.241243 1.075795,3.74278 0.395937,0.172229 1.354908,0.31714 2.131064,0.322027 1.301111,0.0082 1.469991,-0.04992 2.165181,-0.745114 z M 44.697831,40.513006 c 0.937197,-0.603801 4.575408,-4.218337 4.930033,-4.897942 0.478933,-0.917835 0.402034,-2.280832 -0.171798,-3.045153 -0.873951,-1.164056 -2.103455,-2.3867 -2.73182,-2.716568 -0.992675,-0.521117 -2.471467,-0.409469 -3.371487,0.254542 -1.195712,0.882168 -4.318211,3.981189 -4.788687,4.752688 -0.927467,1.52086 -0.25437,3.372821 1.894312,5.212013 1.506637,1.289621 2.724909,1.416184 4.239447,0.44042 z m 51.268854,0.174672 c 0.882541,-0.472319 2.772852,-2.77354 3.014029,-3.6692 0.352595,-1.309443 -0.127552,-2.209916 -2.32134,-4.3535 -2.685647,-2.624178 -3.441131,-3.133424 -4.648578,-3.133424 -1.186627,0 -1.970371,0.373064 -2.93984,1.399381 -1.331387,1.409436 -1.895322,2.454436 -1.895322,3.512101 0,0.916475 0.119881,1.115339 1.631894,2.707088 3.719051,3.915194 5.140819,4.617736 7.159157,3.537554 z M 56.03858,33.024165 c 2.302338,-0.784875 4.71192,-2.054564 5.291046,-2.788033 0.626386,-0.793332 0.490033,-2.386992 -0.366996,-4.289307 -1.226402,-2.722195 -2.404846,-3.086333 -5.94609,-1.837318 -5.360177,1.890565 -6.272481,3.07854 -4.959283,6.457849 0.829166,2.133736 1.789807,3.05019 3.197242,3.05019 0.573894,0 1.826727,-0.267023 2.784081,-0.593381 z m 29.727437,0.03112 c 1.397475,-1.1759 2.373916,-5.094599 1.573744,-6.315821 -0.683931,-1.043813 -6.206089,-3.336897 -8.035838,-3.336897 -0.893808,0 -1.149919,0.115895 -1.881145,0.851247 -0.97114,0.976615 -1.824112,3.034099 -1.824112,4.399983 0,1.442893 0.577535,2.170071 2.433813,3.064422 4.01879,1.93625 6.509654,2.366896 7.733538,1.337066 z M 73.415944,29.067329 c 0.824182,-0.979494 1.11374,-2.162133 1.013813,-4.140841 -0.07644,-1.51445 -0.169783,-1.82025 -0.788896,-2.585505 l -0.702162,-0.867908 -4.061251,-0.05612 c -4.400244,-0.06081 -4.787344,0.01835 -5.628377,1.151019 -0.411261,0.553872 -0.475876,0.960013 -0.475876,2.991097 0,2.031085 0.0646,2.437226 0.475876,2.991097 0.823077,1.108484 1.253213,1.201439 5.576177,1.205047 l 4.00906,0.0034 0.581636,-0.691229 z M 50.390187,23.848675 c 2.298406,-1.111484 4.59249,-2.59309 4.982807,-3.218083 0.505992,-0.810222 0.344595,-2.382882 -0.399719,-3.894791 -0.925197,-1.879338 -1.774873,-2.662199 -3.044761,-2.805332 -1.191001,-0.134244 -2.12393,0.235893 -5.287786,2.097923 -3.297531,1.940701 -3.710718,3.039486 -2.244818,5.969652 1.52827,3.05483 2.734232,3.427153 5.994277,1.850631 z m 41.770554,0.102423 c 1.094917,-0.989192 2.279432,-3.270983 2.277391,-4.387026 -8.84e-4,-0.448245 -0.197946,-1.112992 -0.438054,-1.477216 -0.879421,-1.334027 -5.675743,-3.991038 -7.525422,-4.168845 -0.928166,-0.08922 -1.13578,-0.01732 -1.908248,0.660917 -1.169457,1.026801 -2.157351,3.150441 -2.157581,4.638099 -2.12e-4,1.346521 0.285945,1.729521 2.218865,2.969862 4.458039,2.860675 5.936213,3.206856 7.533049,1.764209 z M 63.418536,19.533486 c 2.661239,-0.535669 4.229576,-1.224419 4.629048,-2.032902 0.154221,-0.312125 0.281905,-1.098758 0.283752,-1.748073 0.0088,-3.041319 -1.051564,-4.972583 -2.863136,-5.215565 -1.034482,-0.138753 -6.293353,0.866621 -7.489444,1.431807 -1.127314,0.532689 -1.538035,1.540914 -1.384035,3.397468 0.17399,2.097424 0.499055,3.095106 1.281288,3.932494 0.581194,0.622161 0.79464,0.698863 1.944859,0.698863 0.710601,0 2.329556,-0.208841 3.597668,-0.464092 z m 16.611072,-0.289462 c 0.982089,-0.982089 1.556584,-2.904169 1.422422,-4.758962 -0.141938,-1.96226 -0.72466,-2.42431 -4.068753,-3.226134 -5.740403,-1.3764002 -6.698517,-1.040334 -7.569755,2.655159 -0.185424,0.786501 -0.338647,1.721013 -0.340494,2.076694 -0.0053,1.003161 0.6711,2.195893 1.45108,2.559135 1.16616,0.543092 5.373892,1.414904 6.910504,1.431806 1.339373,0.01473 1.494805,-0.0375 2.194996,-0.737698 z"
     id="path410"
     inkscape:export-filename="path410.png"
     inkscape:export-xdpi="165.87"
     inkscape:export-ydpi="165.87" />
</svg>
